<svg width="10" height="17" viewBox="0 0 10 17" fill="none" xmlns="http://www.w3.org/2000/svg">
<path d="M5.6786 0.272058C5.30329 -0.0906858 4.69379 -0.0906858 4.31848 0.272058L0.281483 4.18542C-0.0938276 4.54816 -0.0938276 5.13726 0.281483 5.5C0.656793 5.86274 1.2663 5.86274 1.64161 5.5L4.03925 3.1682L4.03923 16.0714C4.03923 16.585 4.46858 17 5.00002 17C5.53146 17 5.96082 16.585 5.96082 16.0714L5.96084 3.1682L8.35839 5.5C8.7337 5.86274 9.3432 5.86274 9.71852 5.5C10.0938 5.13726 10.0938 4.54816 9.71852 4.18542L5.6816 0.269156L5.6786 0.272058Z" fill="black"/>
<path d="M4.3214 16.7279C4.69671 17.0907 5.30621 17.0907 5.68152 16.7279L9.71852 12.8146C10.0938 12.4518 10.0938 11.8627 9.71852 11.5C9.34321 11.1373 8.7337 11.1373 8.35839 11.5L5.96075 13.8318L5.96077 0.928623C5.96077 0.414978 5.53142 -3.72568e-07 4.99998 -4.16877e-07C4.46854 -4.61186e-07 4.03918 0.414978 4.03918 0.928623L4.03916 13.8318L1.64161 11.5C1.2663 11.1373 0.656796 11.1373 0.281485 11.5C-0.093825 11.8627 -0.0938251 12.4518 0.281485 12.8146L4.3184 16.7308L4.3214 16.7279Z" fill="black"/>
</svg>
