<svg width="21" height="21" viewBox="0 0 21 21" fill="none" xmlns="http://www.w3.org/2000/svg">
<path d="M10.6018 0.331299C4.92997 0.331299 0.332031 4.92924 0.332031 10.6011C0.332031 16.273 4.92997 20.8709 10.6018 20.8709C16.2737 20.8709 20.8717 16.273 20.8717 10.6011C20.8717 4.92924 16.2737 0.331299 10.6018 0.331299ZM10.6018 2.319C15.179 2.319 18.884 6.02322 18.884 10.6011C18.884 15.1783 15.1797 18.8832 10.6018 18.8832C6.02466 18.8832 2.31974 15.179 2.31974 10.6011C2.31974 6.02392 6.02395 2.319 10.6018 2.319ZM16.4078 7.71343L15.4745 6.77267C15.2813 6.57783 14.9666 6.57655 14.7718 6.76985L8.91834 12.5763L6.44232 10.0802C6.24906 9.88533 5.93442 9.88405 5.73958 10.0773L4.79878 11.0105C4.60394 11.2038 4.60266 11.5184 4.79596 11.7133L8.55525 15.503C8.74852 15.6979 9.06315 15.6992 9.25799 15.5059L16.405 8.41621C16.5998 8.22291 16.601 7.90827 16.4078 7.71343Z" fill="#4EAFF5" fill-opacity="0.76"/>
</svg>
