<svg width="24" height="27" viewBox="0 0 24 27" fill="none" xmlns="http://www.w3.org/2000/svg">
<g clip-path="url(#clip0_844_3315)">
<path d="M12.2159 0.225831C12.2564 0.279194 12.2873 0.339857 12.306 0.405404C12.3208 0.456936 12.3275 0.509616 12.3265 0.561832V6.94331L5.03037 11.2098C4.76029 11.3678 4.409 11.284 4.2457 11.0229C4.08242 10.7617 4.16896 10.4219 4.43902 10.264L11.1837 6.32V1.52755L1.14286 7.33969V19.1825L10.2468 24.312C10.5195 24.4656 10.6118 24.804 10.4529 25.0677C10.2941 25.3315 9.94421 25.4207 9.67153 25.2671L0 19.8177V6.71312L11.4535 0.0832224C11.4994 0.0556222 11.5496 0.0341275 11.6029 0.0199137C11.6706 0.0017625 11.7403 -0.00377624 11.8085 0.00246444C11.891 0.00985765 11.9684 0.0342134 12.037 0.0718917C12.1056 0.109441 12.167 0.161173 12.2159 0.225831Z" fill="white"/>
<path d="M11.6944 26.5947C11.7131 26.6604 11.744 26.721 11.7845 26.7744C11.8335 26.8389 11.8948 26.8907 11.9635 26.9283C12.032 26.9659 12.1094 26.9904 12.192 26.9976C12.2601 27.0039 12.3298 26.9984 12.3976 26.9803C12.4509 26.966 12.5011 26.9446 12.5469 26.9169L24.0004 20.2871V7.18245L14.3289 1.73309C14.0562 1.57944 13.7064 1.66867 13.5475 1.93239C13.3886 2.1961 13.4809 2.53444 13.7536 2.68809L22.8575 7.81768V19.6604L12.8168 25.4727V20.6864L19.5432 16.9042C19.5638 16.8931 19.5835 16.8808 19.6027 16.8674C19.6683 16.8211 19.7212 16.7632 19.76 16.6983C19.8002 16.6315 19.8263 16.5559 19.8343 16.4752C19.8366 16.4537 19.8374 16.4321 19.8371 16.4105V15.3947H18.6942V16.103L11.6739 20.0506V26.4384C11.673 26.4905 11.6797 26.5432 11.6944 26.5947Z" fill="white"/>
<path d="M14.3624 7.41547L8.8977 10.4984V12.3737L8.24464 12.7105V12.8684H5.79566V12.7105L4.57117 12.0789L3.34668 12.7105V13.9737L4.57117 14.7631L5.79566 13.9737H8.24464L9.46913 14.7631L10.6936 13.9737V12.7105L10.0406 12.3737V11.1332L14.3718 8.68977L18.8569 11.1384V11.2895C18.8569 11.5947 19.1127 11.8421 19.4283 11.8421C19.7439 11.8421 19.9997 11.5947 19.9997 11.2895V10.4931L14.3624 7.41547Z" fill="white"/>
<path d="M14.2039 12.0789L12.9794 12.7105V13.9737L13.7561 14.4744L14.0569 15.9872L9.61249 18.5522L5.30594 16.4004V15.1579H4.16309V16.5445C4.16309 16.8693 4.3505 17.1669 4.64887 17.3162L9.20887 19.5946C9.4847 19.7324 9.8146 19.7226 10.0812 19.5688L14.79 16.8512C15.1144 16.6639 15.283 16.3003 15.2116 15.9414L14.8894 14.3212L15.4284 13.9737H18.3672L19.5917 14.7632L20.8161 13.9737V12.7105L19.5917 12.0789L18.3672 12.7105V12.8684H15.4284V12.7105L14.2039 12.0789Z" fill="white"/>
</g>
<defs>
<clipPath id="clip0_844_3315">
<rect width="24" height="27" fill="white"/>
</clipPath>
</defs>
</svg>
