<svg width="24" height="24" viewBox="0 0 24 24" fill="none" xmlns="http://www.w3.org/2000/svg">
<path fill-rule="evenodd" clip-rule="evenodd" d="M7.08437 11.0842L8.55126 6.68357H10.4486L11.9155 11.0842L16.3162 12.5511V14.4485L11.9155 15.9154L10.4486 20.316H8.55126L7.08437 15.9154L2.68372 14.4485V12.5511L7.08437 11.0842ZM9.49994 10.1621L8.82363 12.191L8.19117 12.8235L6.16222 13.4998L8.19117 14.1761L8.82363 14.8086L9.49994 16.8375L10.1763 14.8086L10.8087 14.1761L12.8377 13.4998L10.8087 12.8235L10.1763 12.191L9.49994 10.1621Z" fill="#1B1B1B"/>
<path fill-rule="evenodd" clip-rule="evenodd" d="M16.1506 5.15045L16.9307 2.81006H18.0692L18.8493 5.15045L21.1897 5.93059V7.06901L18.8493 7.84914L18.0692 10.1895H16.9307L16.1506 7.84914L13.8102 7.06901V5.93059L16.1506 5.15045Z" fill="#1B1B1B"/>
</svg>
